<mxfile host="app.diagrams.net" modified="2022-06-14T20:22:10.720Z" agent="5.0 (Windows NT 10.0; Win64; x64) AppleWebKit/537.36 (KHTML, like Gecko) Chrome/102.0.0.0 Safari/537.36" etag="CoCnGPGcMNNMQN4Z7UyL" version="20.0.1" type="github">
  <diagram id="8Jaj51vwJk_v607uf20i" name="Page-1">
    <mxGraphModel dx="1108" dy="450" grid="1" gridSize="10" guides="1" tooltips="1" connect="1" arrows="1" fold="1" page="1" pageScale="1" pageWidth="827" pageHeight="1169" math="0" shadow="0">
      <root>
        <mxCell id="0" />
        <mxCell id="1" parent="0" />
        <mxCell id="7l8itmvQGehyX_hHmEu--10" style="edgeStyle=orthogonalEdgeStyle;rounded=0;orthogonalLoop=1;jettySize=auto;html=1;exitX=1;exitY=0.5;exitDx=0;exitDy=0;entryX=0;entryY=0.5;entryDx=0;entryDy=0;" edge="1" parent="1" source="7l8itmvQGehyX_hHmEu--1" target="7l8itmvQGehyX_hHmEu--2">
          <mxGeometry relative="1" as="geometry" />
        </mxCell>
        <mxCell id="7l8itmvQGehyX_hHmEu--1" value="Register Student&lt;br&gt;" style="rounded=1;whiteSpace=wrap;html=1;" vertex="1" parent="1">
          <mxGeometry x="41" y="130" width="120" height="60" as="geometry" />
        </mxCell>
        <mxCell id="7l8itmvQGehyX_hHmEu--11" style="edgeStyle=orthogonalEdgeStyle;rounded=0;orthogonalLoop=1;jettySize=auto;html=1;exitX=1;exitY=0.5;exitDx=0;exitDy=0;entryX=0;entryY=0.5;entryDx=0;entryDy=0;" edge="1" parent="1" source="7l8itmvQGehyX_hHmEu--2" target="7l8itmvQGehyX_hHmEu--3">
          <mxGeometry relative="1" as="geometry" />
        </mxCell>
        <mxCell id="7l8itmvQGehyX_hHmEu--16" style="edgeStyle=orthogonalEdgeStyle;rounded=0;orthogonalLoop=1;jettySize=auto;html=1;exitX=0.5;exitY=1;exitDx=0;exitDy=0;entryX=0.5;entryY=0;entryDx=0;entryDy=0;" edge="1" parent="1" source="7l8itmvQGehyX_hHmEu--2" target="7l8itmvQGehyX_hHmEu--15">
          <mxGeometry relative="1" as="geometry" />
        </mxCell>
        <mxCell id="7l8itmvQGehyX_hHmEu--2" value="Is #Stu &amp;lt; 30" style="rhombus;whiteSpace=wrap;html=1;" vertex="1" parent="1">
          <mxGeometry x="200" y="120" width="80" height="80" as="geometry" />
        </mxCell>
        <mxCell id="7l8itmvQGehyX_hHmEu--12" style="edgeStyle=orthogonalEdgeStyle;rounded=0;orthogonalLoop=1;jettySize=auto;html=1;exitX=1;exitY=0.5;exitDx=0;exitDy=0;entryX=0;entryY=0.5;entryDx=0;entryDy=0;" edge="1" parent="1" source="7l8itmvQGehyX_hHmEu--3" target="7l8itmvQGehyX_hHmEu--4">
          <mxGeometry relative="1" as="geometry" />
        </mxCell>
        <mxCell id="7l8itmvQGehyX_hHmEu--3" value="Admission Test" style="rounded=1;whiteSpace=wrap;html=1;" vertex="1" parent="1">
          <mxGeometry x="320" y="130" width="120" height="60" as="geometry" />
        </mxCell>
        <mxCell id="7l8itmvQGehyX_hHmEu--13" style="edgeStyle=orthogonalEdgeStyle;rounded=0;orthogonalLoop=1;jettySize=auto;html=1;exitX=1;exitY=0.5;exitDx=0;exitDy=0;entryX=0;entryY=0.5;entryDx=0;entryDy=0;" edge="1" parent="1" source="7l8itmvQGehyX_hHmEu--4" target="7l8itmvQGehyX_hHmEu--8">
          <mxGeometry relative="1" as="geometry" />
        </mxCell>
        <mxCell id="7l8itmvQGehyX_hHmEu--14" style="edgeStyle=orthogonalEdgeStyle;rounded=0;orthogonalLoop=1;jettySize=auto;html=1;exitX=0.5;exitY=1;exitDx=0;exitDy=0;" edge="1" parent="1" source="7l8itmvQGehyX_hHmEu--4" target="7l8itmvQGehyX_hHmEu--9">
          <mxGeometry relative="1" as="geometry" />
        </mxCell>
        <mxCell id="7l8itmvQGehyX_hHmEu--4" value="Is grade &amp;gt;=51" style="rhombus;whiteSpace=wrap;html=1;" vertex="1" parent="1">
          <mxGeometry x="480" y="120" width="90" height="80" as="geometry" />
        </mxCell>
        <mxCell id="7l8itmvQGehyX_hHmEu--8" value="Upgrade status Rejected" style="rounded=1;whiteSpace=wrap;html=1;fillColor=#f8cecc;strokeColor=#b85450;" vertex="1" parent="1">
          <mxGeometry x="630" y="130" width="120" height="60" as="geometry" />
        </mxCell>
        <mxCell id="7l8itmvQGehyX_hHmEu--19" value="" style="edgeStyle=orthogonalEdgeStyle;rounded=0;orthogonalLoop=1;jettySize=auto;html=1;" edge="1" parent="1" source="7l8itmvQGehyX_hHmEu--9" target="7l8itmvQGehyX_hHmEu--17">
          <mxGeometry relative="1" as="geometry" />
        </mxCell>
        <mxCell id="7l8itmvQGehyX_hHmEu--9" value="Upgrade status Admitted" style="rounded=1;whiteSpace=wrap;html=1;fillColor=#d5e8d4;strokeColor=#82b366;" vertex="1" parent="1">
          <mxGeometry x="465" y="250" width="120" height="60" as="geometry" />
        </mxCell>
        <mxCell id="7l8itmvQGehyX_hHmEu--15" value="Waiting List" style="rounded=1;whiteSpace=wrap;html=1;fillColor=#dae8fc;strokeColor=#6c8ebf;" vertex="1" parent="1">
          <mxGeometry x="180" y="220" width="120" height="60" as="geometry" />
        </mxCell>
        <mxCell id="7l8itmvQGehyX_hHmEu--17" value="Generate Student ID" style="rounded=1;whiteSpace=wrap;html=1;fillColor=#e1d5e7;strokeColor=#9673a6;" vertex="1" parent="1">
          <mxGeometry x="465" y="350" width="120" height="60" as="geometry" />
        </mxCell>
      </root>
    </mxGraphModel>
  </diagram>
</mxfile>
